# xmcd CD database file
#
# Track frame offsets:
#	150
#	16880
#	34215
#	48640
#	66627
#	84450
#	95090
#	112157
#	126820
#	142835
#
# Disc length: 2292 seconds
#
# Revision: 0
# Processed by: cddbd v1.5.1PL0 Copyright (c) Steve Scherf et al.
# Submitted via: CDex 1.51
#
DISCID=8f08f20a
DTITLE=Tareva Henderson - Looks Like A Job For A Woman
DYEAR=1998
DGENRE=Country
TTITLE0=And Then Some
TTITLE1=Looks Like A Job For A Woman
TTITLE2=When I'm In Love
TTITLE3=Going Away
TTITLE4=(At The Corner of) Walk and Don't Walk
TTITLE5=If I Were You
TTITLE6=Dance With Me
TTITLE7=Willin' Heart
TTITLE8=Guitar George
TTITLE9=Tribute Melody
EXTD=YEAR: 1998
EXTT0=
EXTT1=
EXTT2=
EXTT3=
EXTT4=
EXTT5=
EXTT6=
EXTT7=
EXTT8=
EXTT9=
PLAYORDER=
